<svg xmlns="http://www.w3.org/2000/svg" xmlns:xlink="http://www.w3.org/1999/xlink" x="0px" y="0px" viewBox="0 0 100 100" style="enable-background:new 0 0 100 100;" xml:space="preserve"><style type="text/css">	.abc{fill:none;stroke:currentcolor;stroke-width:3;stroke-miterlimit:10;}</style><g>	<path class="abc" d="M30.6,81.3c0-3-2.4-5.4-5.4-5.4H23h-5.4v10.8h7.6C28.2,86.7,30.6,84.3,30.6,81.3z"></path>	<path class="abc" d="M28.4,70.5c0-3-2.4-5.4-5.4-5.4h-5.4v10.8H23C26,75.9,28.4,73.5,28.4,70.5z"></path>	<path class="abc" d="M2.5,97.5h43.2V54.3H2.5V97.5z M17.6,75.9V65.1H23c3,0,5.4,2.4,5.4,5.4S26,75.9,23,75.9h2.2  c3,0,5.4,2.4,5.4,5.4c0,3-2.4,5.4-5.4,5.4h-7.6V75.9z"></path>	<path class="abc" d="M54.3,54.3v43.2h43.2V54.3H54.3z M75.9,86.7c3.6,0,6.5-2.9,6.5-6.5C82.4,83.8,79.5,86.7,75.9,86.7  c-3.6,0-6.5-2.9-6.5-6.5v-8.6c0-3.6,2.9-6.5,6.5-6.5c3.6,0,6.5,2.9,6.5,6.5c0-3.6-2.9-6.5-6.5-6.5c-3.6,0-6.5,2.9-6.5,6.5v8.6  C69.4,83.8,72.3,86.7,75.9,86.7z"></path>	<polygon class="abc" points="52.2,13.3 47.8,13.3 43.7,28.4 56.3,28.4  "></polygon>	<path class="abc" d="M71.6,2.5H28.4v43.2h43.2V2.5z M41.4,37l2.4-8.6h-0.2h0.2l4.1-15.1h4.3l4.1,15.1h0.2h-0.2l2.4,8.6l-2.4-8.6  H43.7L41.4,37z"></path></g></svg>