<svg xmlns="http://www.w3.org/2000/svg" xmlns:xlink="http://www.w3.org/1999/xlink" class="caro-rocket" x="0px" y="0px" viewBox="0 0 599.7 277" xml:space="preserve"><style type="text/css">	.rock-zero{fill:#FF6841;}	.rock-one{fill:#FFC1A7;}	.rock-two{fill:#E6EAEC;}	.rock-three{fill:#FF986D;}	.rock-four{fill:#0A6375;}	.rock-five{fill:#A9C1CC;}	.rock-six{fill:#AA532E;}</style><g>	<path class="rock-zero" d="M451.7,167.9c4.7-9.4,7.1-20.1,7.2-30.7c-0.1-2.1-0.3-4.2-0.6-6.3c-1.1-7.6-3.9-14.6-7.3-21.4   c-0.1-0.3-0.2-0.6,0.1-0.8c0.1-0.2,0.3-0.3,0.5-0.5c-0.1-0.3-0.1-0.7,0.3-1c0.5-0.3,1-0.5,1.5-0.8c0.2-0.2,0.5-0.3,0.8-0.4   c16.4-9.1,33-17.9,49.5-26.7c1.1-0.6,2.4,0.7,1.5,1.7c-7.9,9.3-15.9,18.6-24.1,27.7c6.2-2.3,12.4-4.7,18.7-6.7   c7.4-2.4,14.9-4.4,22.5-6.2c14.9-3.4,30.1-5.7,45.4-6.8c8.7-0.6,17.5-0.9,26.3-0.7c1.4,0,1.9,2,0.5,2.5   c-28.1,9.9-55.5,21.9-81.9,35.6c-6.6,3.4-13.2,6.9-19.7,10.4c13.4-1.3,26.7-2.1,40.1-1.6c14.3,0.6,28.5,2.2,42.5,5   c8,1.6,15.9,3.5,23.7,5.8c0.9,0.3,0.8,1.5-0.1,1.6c-28.1,5.2-56.7,8.7-85.2,10.4c-6.4,0.4-12.9,0.7-19.3,0.9   c18.8,7.8,36.5,18.1,52.6,30.7c1.1,0.9,0.1,2.5-1.2,2.4c-24.8-3.1-49.4-8.3-73.3-15.6c-6.7-2.1-13.4-4.3-20.1-6.6   C451.6,169.7,451.4,168.6,451.7,167.9z"></path>	<path class="rock-one" d="M201.4,76.8C201.4,76.8,201.4,76.8,201.4,76.8c2.4-10.8,8.8-20.5,15.3-29.2c6.8-9.1,14.4-17.4,23.4-24.3   c17-13,38.1-21.2,59.4-22.9c11.8-1,23.8-0.1,35.3,2.5c1.6,0.4,1.7,2.2,0.6,3.1c-16.7,14.1-29.3,32.7-36.9,53.2   c-1.9,5.1-3.3,10.3-4.5,15.6c0,0.2-0.1,0.5-0.1,0.7c-0.1,0.5-0.2,1.1-0.3,1.6c-0.4,2-3.5,1.4-3.1-0.6c0,0,0,0,0,0   c-22.9-2-46-1.9-68.9,0.4c-3.2,0.3-6.4,0.7-9.6,1.1c-3.4,0.4-6.7,1-10.1,1.1C200.6,79.1,200.1,77.2,201.4,76.8z"></path>	<path class="rock-one" d="M197.1,189.3c3.3,0.4,6.6,1.3,10,1.9c3.2,0.6,6.3,1.2,9.5,1.8c22.6,4.1,45.7,6.1,68.7,5.9c0,0,0,0,0,0   c-0.3-2,2.9-2.4,3.1-0.4c0.1,0.5,0.1,1.1,0.2,1.6c0.1,0.2,0.1,0.5,0.1,0.7c0.7,5.4,1.8,10.6,3.2,15.9c5.9,21,17.1,40.5,32.5,56   c1,1,0.7,2.8-0.9,3.1c-11.7,1.8-23.7,1.6-35.4-0.3c-21.2-3.5-41.5-13.2-57.4-27.6c-8.4-7.6-15.4-16.5-21.4-26.1   c-5.8-9.2-11.3-19.4-12.8-30.3c0,0-0.1,0-0.1,0C195.2,191.1,195.9,189.2,197.1,189.3z"></path>	<path class="rock-two" d="M8.8,142.4c-2.8-1.8-5.6-3.7-8.4-5.5c-1.3-0.9,0.9-3.5,2.3-2.7c21.7-15.1,45-28,69.2-38.7   c0.4-0.2,0.8-0.3,1.2-0.5c23.9-10.4,48.8-18.5,74.3-24.3c26.7-6,54-9.3,81.3-9.9c28.9-0.6,57.9,2,86.3,7.5   c28.2,5.5,55.8,13.8,82.2,25c3.2,1.3,6.3,2.7,9.5,4.2c0,0,0,0,0,0c0.1,0,0.2,0.1,0.3,0.1c0.1,0,0.1,0.1,0.1,0.2c0,0,0,0,0,0   c13,22.8,14.5,51.4,5.1,75.7c-2.7,6.8-6.2,13.3-10.5,19.3c-0.3,0.5-0.9,1.1-1.6,1.1c-0.3,0.4-0.8,0.7-1.2,0.8   c-25.8,8.2-52.4,13.9-79.2,17.3c-26.9,3.4-54.2,4.4-81.3,3c-27-1.3-54-5-80.4-10.9c-26.4-5.9-52.3-14-77.3-24.4   c-3.6-1.5-7.3-3.1-10.9-4.7C48.6,165.9,28.2,154.9,8.8,142.4z"></path>	<path class="rock-three" d="M297.1,125.3c9.3-21.7,38.9-28.6,57-13.4c6.3,5.3,10.2,12.1,12,19.5c1.2,4.5,1.6,9.3,0.9,14.3   c-2.7,21.4-24.2,35.2-44.9,30.5C299.8,171.1,288.2,146,297.1,125.3z"></path>	<path class="rock-circ" d="M158.4,119.1c12-28,50.2-36.9,73.6-17.3c8.1,6.8,13.2,15.7,15.4,25.1c1.5,5.8,2,12.1,1.2,18.5   c-3.4,27.6-31.3,45.5-58,39.4C161.9,178.2,146.9,145.8,158.4,119.1z"></path>	<g class="rock-dots">		<path class="rock-dots-sub" d="M159.1,99.4c-0.6-0.6-1.1-1.3-1.4-2.1c-0.1-0.4-0.2-0.8-0.2-1.2c-0.1-0.9,0.1-1.7,0.5-2.5    c0.3-0.6,0.7-1.1,1.2-1.5c0.4-0.5,1-0.8,1.6-1c0.6-0.2,1.2-0.3,1.8-0.2c0.7,0,1.3,0.1,1.9,0.5c0.4,0.2,0.7,0.5,1.1,0.7    c0.6,0.6,1.1,1.3,1.4,2.1c0.1,0.4,0.2,0.8,0.2,1.2c0.1,0.9-0.1,1.7-0.5,2.5c-0.3,0.6-0.7,1.1-1.2,1.5c-0.4,0.5-1,0.8-1.6,1    c-0.6,0.2-1.2,0.3-1.8,0.2c-0.7,0-1.3-0.1-1.9-0.5C159.8,99.9,159.5,99.7,159.1,99.4z"></path>		<path class="rock-dots-sub" d="M147.5,106.6c1-2.1,3.9-3.2,6-2c2.1,1.2,3.1,3.7,2,6c-1,2.1-3.9,3.2-6,2C147.4,111.4,146.4,108.8,147.5,106.6    z"></path>		<path class="rock-dots-sub" d="M141,130.6c-0.6-0.5-1-1.2-1.3-2c-0.1-0.4-0.2-0.8-0.2-1.2c-0.1-0.8,0.1-1.6,0.5-2.4c0.3-0.6,0.6-1.1,1.2-1.4    c0.4-0.4,0.9-0.7,1.5-0.9c0.6-0.2,1.2-0.3,1.8-0.2c0.6,0,1.2,0.1,1.8,0.4c0.3,0.2,0.7,0.5,1,0.7c0.6,0.5,1,1.2,1.3,2    c0.1,0.4,0.2,0.8,0.2,1.2c0.1,0.8-0.1,1.6-0.5,2.4c-0.3,0.6-0.6,1.1-1.2,1.4c-0.4,0.4-0.9,0.7-1.5,0.9c-0.6,0.2-1.2,0.3-1.8,0.2    c-0.6,0-1.2-0.1-1.8-0.4C141.6,131,141.3,130.8,141,130.6z"></path>		<path class="rock-dots-sub" d="M141.1,149.3c-0.6-0.5-1-1.1-1.2-1.8c-0.1-0.4-0.1-0.7-0.2-1.1c-0.1-0.8,0.1-1.5,0.4-2.2    c0.2-0.5,0.6-1,1.1-1.3c0.4-0.4,0.9-0.7,1.4-0.9c0.5-0.2,1.1-0.3,1.6-0.2c0.6,0,1.1,0.1,1.7,0.4l1,0.7c0.6,0.5,1,1.1,1.2,1.8    c0.1,0.4,0.1,0.7,0.2,1.1c0.1,0.8-0.1,1.5-0.4,2.2c-0.2,0.5-0.6,1-1.1,1.3c-0.4,0.4-0.9,0.7-1.4,0.9c-0.5,0.2-1.1,0.3-1.6,0.2    c-0.6,0-1.1-0.1-1.7-0.4L141.1,149.3z"></path>		<path class="rock-dots-sub" d="M148.6,165.2c-0.6-0.5-1-1.1-1.2-1.9c-0.1-0.4-0.1-0.7-0.2-1.1c-0.1-0.8,0.1-1.5,0.5-2.3    c0.2-0.6,0.6-1,1.1-1.4c0.4-0.4,0.9-0.7,1.4-0.9c0.5-0.2,1.1-0.3,1.7-0.2c0.6,0,1.2,0.1,1.7,0.4c0.3,0.2,0.7,0.4,1,0.7    c0.6,0.5,1,1.1,1.2,1.9c0.1,0.4,0.1,0.7,0.2,1.1c0.1,0.8-0.1,1.5-0.5,2.3c-0.3,0.6-0.6,1-1.1,1.4c-0.4,0.4-0.9,0.7-1.4,0.9    c-0.5,0.2-1.1,0.3-1.7,0.2c-0.6,0-1.2-0.1-1.7-0.4C149.3,165.7,148.9,165.4,148.6,165.2z"></path>		<path class="rock-dots-sub" d="M178.8,89.7c-0.6-0.6-1.1-1.2-1.3-2l-0.2-1.2c-0.1-0.9,0.1-1.7,0.5-2.4c0.3-0.6,0.7-1.1,1.2-1.5    c0.4-0.4,0.9-0.7,1.6-0.9c0.6-0.2,1.2-0.3,1.8-0.2c0.6,0,1.2,0.1,1.8,0.4c0.4,0.2,0.7,0.5,1.1,0.7c0.6,0.6,1.1,1.2,1.3,2    c0.1,0.4,0.2,0.8,0.2,1.2c0.1,0.9-0.1,1.7-0.5,2.4c-0.3,0.6-0.7,1.1-1.2,1.5c-0.4,0.4-0.9,0.7-1.6,0.9c-0.6,0.2-1.2,0.3-1.8,0.2    c-0.6,0-1.2-0.1-1.8-0.4C179.5,90.2,179.2,90,178.8,89.7z"></path>		<path class="rock-dots-sub" d="M199.3,84.9c-0.6-0.5-1-1.2-1.2-1.9c-0.1-0.4-0.1-0.7-0.2-1.1c-0.1-0.8,0.1-1.6,0.5-2.3    c0.3-0.6,0.6-1,1.1-1.4c0.4-0.4,0.9-0.7,1.5-0.9c0.6-0.2,1.1-0.3,1.7-0.2c0.6,0,1.2,0.1,1.7,0.4c0.3,0.2,0.7,0.4,1,0.7    c0.6,0.5,1,1.2,1.2,1.9c0.1,0.4,0.1,0.7,0.2,1.1c0.1,0.8-0.1,1.6-0.5,2.3c-0.3,0.6-0.6,1-1.1,1.4c-0.4,0.4-0.9,0.7-1.5,0.9    c-0.6,0.2-1.1,0.3-1.7,0.2c-0.6,0-1.2-0.1-1.7-0.4C199.9,85.3,199.6,85.1,199.3,84.9z"></path>		<path class="rock-dots-sub" d="M219.1,91.2c-0.6-0.5-1-1.1-1.2-1.9l-0.2-1.1c-0.1-0.8,0.1-1.5,0.4-2.2c0.2-0.5,0.6-1,1.1-1.3    c0.4-0.4,0.9-0.7,1.4-0.9c0.5-0.2,1.1-0.3,1.7-0.2c0.6,0,1.1,0.1,1.7,0.4c0.3,0.2,0.6,0.4,1,0.7c0.6,0.5,1,1.1,1.2,1.9    c0.1,0.4,0.1,0.7,0.2,1.1c0.1,0.8-0.1,1.5-0.4,2.2c-0.2,0.5-0.6,1-1.1,1.3c-0.4,0.4-0.9,0.7-1.4,0.9c-0.5,0.2-1.1,0.3-1.7,0.2    c-0.6,0-1.1-0.1-1.7-0.4C219.7,91.7,219.4,91.4,219.1,91.2z"></path>		<path class="rock-dots-sub" d="M236.3,98.8C236.3,98.8,236.3,98.8,236.3,98.8c-0.4-0.5-0.6-1.1-0.7-1.7c-0.2-0.6-0.2-1.2,0-1.8    c0.1-0.4,0.3-0.8,0.4-1.2c0.3-0.6,0.7-1.1,1.2-1.4c0.3-0.3,0.6-0.5,1-0.7c0.5-0.3,1.1-0.5,1.7-0.5c0.4,0,0.8,0,1.2,0.1    c0.8,0.2,1.6,0.5,2.2,1.1c0,0,0,0,0,0c0.6,0.6,1,1.2,1.3,2c0.1,0.4,0.2,0.8,0.2,1.2c0.1,0.8-0.1,1.6-0.5,2.4    c-0.3,0.6-0.7,1.1-1.2,1.4c-0.4,0.4-0.9,0.7-1.5,0.9c-0.6,0.2-1.2,0.3-1.8,0.2c-0.6,0-1.2-0.1-1.8-0.4    C237.4,100.1,236.7,99.5,236.3,98.8z"></path>		<path class="rock-dots-sub" d="M251.9,112.2C251.9,112.1,251.9,112.1,251.9,112.2c-0.4-0.5-0.6-1.1-0.7-1.7c-0.2-0.6-0.2-1.2,0-1.8    c0.1-0.4,0.3-0.8,0.4-1.2c0.3-0.6,0.7-1.1,1.2-1.4c0.3-0.3,0.6-0.5,1-0.7c0.5-0.3,1.1-0.5,1.7-0.5c0.4,0,0.8,0,1.2,0.1    c0.8,0.2,1.6,0.5,2.2,1.1c0,0,0,0,0,0c0.6,0.6,1.1,1.2,1.3,2c0.1,0.4,0.2,0.8,0.2,1.2c0.1,0.8-0.1,1.6-0.5,2.4    c-0.3,0.6-0.7,1.1-1.2,1.4c-0.4,0.4-0.9,0.7-1.5,0.9c-0.6,0.2-1.2,0.3-1.8,0.2c-0.6,0-1.2-0.1-1.8-0.4    C253,113.4,252.4,112.9,251.9,112.2z"></path>		<path class="rock-dots-sub" d="M259.6,130.5c-0.6-0.6-1.1-1.2-1.3-2c-0.1-0.4-0.2-0.8-0.2-1.2c-0.1-0.9,0.1-1.7,0.5-2.4    c0.3-0.6,0.7-1.1,1.2-1.5c0.4-0.4,1-0.8,1.6-0.9c0.6-0.2,1.2-0.3,1.8-0.2c0.6,0,1.2,0.1,1.8,0.4c0.4,0.2,0.7,0.5,1.1,0.7    c0.6,0.6,1.1,1.2,1.3,2c0.1,0.4,0.2,0.8,0.2,1.2c0.1,0.9-0.1,1.7-0.5,2.4c-0.3,0.6-0.7,1.1-1.2,1.5c-0.4,0.4-1,0.8-1.6,0.9    c-0.6,0.2-1.2,0.3-1.8,0.2c-0.6,0-1.2-0.1-1.8-0.4C260.3,131,260,130.7,259.6,130.5z"></path>		<path class="rock-dots-sub" d="M259.3,150c-0.6-0.6-1.1-1.2-1.3-2l-0.2-1.2c-0.1-0.9,0.1-1.7,0.5-2.4c0.3-0.6,0.7-1.1,1.2-1.5    c0.4-0.4,1-0.8,1.6-0.9c0.6-0.2,1.2-0.3,1.8-0.2c0.6,0,1.2,0.1,1.8,0.4l1.1,0.7c0.6,0.6,1.1,1.2,1.3,2c0.1,0.4,0.2,0.8,0.2,1.2    c0.1,0.9-0.1,1.7-0.5,2.4c-0.3,0.6-0.7,1.1-1.2,1.5c-0.4,0.4-1,0.8-1.6,0.9c-0.6,0.2-1.2,0.3-1.8,0.2c-0.6,0-1.2-0.1-1.8-0.4    C260,150.4,259.7,150.2,259.3,150z"></path>		<path class="rock-dots-sub" d="M252.3,167c-0.6-0.6-1.1-1.2-1.3-2c-0.1-0.4-0.2-0.8-0.2-1.2c-0.1-0.9,0.1-1.7,0.5-2.4    c0.3-0.6,0.7-1.1,1.2-1.5c0.4-0.4,1-0.8,1.6-0.9c0.6-0.2,1.2-0.3,1.8-0.2c0.6,0,1.3,0.1,1.8,0.4c0.4,0.2,0.7,0.5,1.1,0.7    c0.6,0.6,1.1,1.2,1.3,2c0.1,0.4,0.2,0.8,0.2,1.2c0.1,0.9-0.1,1.7-0.5,2.4c-0.3,0.6-0.7,1.1-1.2,1.5c-0.4,0.4-1,0.8-1.6,0.9    c-0.6,0.2-1.2,0.3-1.8,0.2c-0.6,0-1.3-0.1-1.8-0.4C253,167.5,252.6,167.2,252.3,167z"></path>		<path class="rock-dots-sub" d="M239.4,181.4c-0.6-0.6-1.1-1.3-1.4-2.1c-0.1-0.4-0.2-0.8-0.2-1.2c-0.1-0.9,0.1-1.7,0.5-2.5    c0.3-0.6,0.7-1.1,1.2-1.5c0.4-0.4,1-0.8,1.6-0.9c0.6-0.2,1.2-0.3,1.8-0.2c0.6,0,1.3,0.1,1.9,0.5c0.4,0.2,0.7,0.5,1.1,0.7    c0.6,0.6,1.1,1.3,1.4,2.1c0.1,0.4,0.2,0.8,0.2,1.2c0.1,0.9-0.1,1.7-0.5,2.5c-0.3,0.6-0.7,1.1-1.2,1.5c-0.4,0.4-1,0.8-1.6,0.9    c-0.6,0.2-1.2,0.3-1.8,0.2c-0.6,0-1.3-0.1-1.9-0.5C240.2,181.8,239.8,181.6,239.4,181.4z"></path>		<path class="rock-dots-sub" d="M222.7,190c-0.6-0.6-1.1-1.2-1.3-2c-0.1-0.4-0.2-0.8-0.2-1.2c-0.1-0.9,0.1-1.7,0.5-2.5    c0.3-0.6,0.7-1.1,1.2-1.5c0.4-0.4,1-0.8,1.6-0.9c0.6-0.2,1.2-0.3,1.8-0.2c0.6,0,1.3,0.1,1.8,0.5c0.4,0.2,0.7,0.5,1.1,0.7    c0.6,0.6,1.1,1.2,1.3,2c0.1,0.4,0.2,0.8,0.2,1.2c0.1,0.9-0.1,1.7-0.5,2.5c-0.3,0.6-0.7,1.1-1.2,1.5c-0.4,0.4-1,0.8-1.6,0.9    c-0.6,0.2-1.2,0.3-1.8,0.2c-0.6,0-1.3-0.1-1.8-0.5C223.4,190.5,223,190.3,222.7,190z"></path>		<path class="rock-dots-sub" d="M201.8,196.6c-0.6-0.6-1.1-1.2-1.3-2c-0.1-0.4-0.2-0.8-0.2-1.2c-0.1-0.9,0.1-1.7,0.5-2.4    c0.3-0.6,0.7-1.1,1.2-1.5c0.4-0.4,1-0.8,1.6-0.9c0.6-0.2,1.2-0.3,1.8-0.2c0.6,0,1.2,0.1,1.8,0.4c0.4,0.2,0.7,0.5,1.1,0.7    c0.6,0.6,1.1,1.2,1.3,2c0.1,0.4,0.2,0.8,0.2,1.2c0.1,0.9-0.1,1.7-0.5,2.4c-0.3,0.6-0.7,1.1-1.2,1.5c-0.4,0.4-1,0.8-1.6,0.9    c-0.6,0.2-1.2,0.3-1.8,0.2c-0.6,0-1.2-0.1-1.8-0.4C202.5,197.1,202.1,196.9,201.8,196.6z"></path>		<path class="rock-dots-sub" d="M183.5,194.2c-0.6-0.6-1.1-1.3-1.4-2.1c-0.1-0.4-0.2-0.8-0.2-1.2c-0.1-0.9,0.1-1.7,0.5-2.5    c0.3-0.6,0.7-1.1,1.2-1.5c0.4-0.5,1-0.8,1.6-0.9c0.6-0.2,1.2-0.3,1.8-0.2c0.7,0,1.3,0.1,1.9,0.5c0.4,0.2,0.7,0.5,1.1,0.7    c0.6,0.6,1.1,1.3,1.4,2.1c0.1,0.4,0.2,0.8,0.2,1.2c0.1,0.9-0.1,1.7-0.5,2.5c-0.3,0.6-0.7,1.1-1.2,1.5c-0.4,0.5-1,0.8-1.6,0.9    c-0.6,0.2-1.2,0.3-1.8,0.2c-0.7,0-1.3-0.1-1.9-0.5L183.5,194.2z"></path>		<path class="rock-dots-sub" d="M164.5,185.8c-0.6-0.5-1-1.2-1.3-2c-0.1-0.4-0.2-0.8-0.2-1.2c-0.1-0.8,0.1-1.6,0.5-2.4    c0.3-0.6,0.6-1.1,1.1-1.4c0.4-0.4,0.9-0.7,1.5-0.9c0.6-0.2,1.2-0.3,1.8-0.2c0.6,0,1.2,0.1,1.8,0.4c0.3,0.2,0.7,0.5,1,0.7    c0.6,0.5,1,1.2,1.3,2c0.1,0.4,0.2,0.8,0.2,1.2c0.1,0.8-0.1,1.6-0.5,2.4c-0.3,0.6-0.6,1.1-1.1,1.4c-0.4,0.4-0.9,0.7-1.5,0.9    c-0.6,0.2-1.2,0.3-1.8,0.2c-0.6,0-1.2-0.1-1.8-0.4C165.2,186.3,164.8,186.1,164.5,185.8z"></path>	</g>	<path class="rock-four" d="M69.7,175.3c4.1-4.3,7.6-9.2,10.3-14.7C90.7,139,87.2,113.9,73,95c-0.4,0.2-0.8,0.3-1.2,0.5   c-24.2,10.6-47.5,23.6-69.2,38.7c-1.4-0.9-3.6,1.8-2.3,2.7c2.8,1.9,5.6,3.7,8.4,5.5C28.2,154.9,48.6,165.9,69.7,175.3z"></path>	<path class="rock-one" d="M396.9,197.9c-0.5-0.2-1-0.5-1.5-0.7c-0.2-0.1-0.3-0.2-0.4-0.4c-0.4-0.6,0.1-1.6,0.5-2   c18.1-21.7,24.1-51.6,16.1-78.4c-2.1-6.9-5-13.6-8.8-19.7c-0.5-0.8,0.5-2.2,1.5-2.7c8.7-9.2,34.7-18.3,35.3-17.4   c9.7,14.1,16.2,30.5,18.9,47.6c2.9,18.4,1.1,37.3-4.7,55.1c-3.4,10.4-8.3,20.3-14.4,29.4c-0.2,0.3-0.5,0.6-0.8,0.9   c-0.5,0.8-1.3,1.6-1.9,1.6C422.4,211.1,408.4,206.4,396.9,197.9z"></path>	<path class="rock-six" d="M290.4,146.5c-1.8-10.3,0.9-20.9,6.7-29.5c5.4-8,25.4-26.8,51.2-13.6c16.6,8.4,27.1,29.1,22.5,47.1   c-4.8,18.5-23.3,31.7-42.3,30.6C309.8,180,293.6,164.7,290.4,146.5z M322.3,171.1c14.3,4.2,30.7-3.3,37.8-16.3   c7.7-14,3.4-31.9-9.1-41.6c-11.3-8.8-26.5-7.8-38.1-0.7c-2.2,1.5-4.3,3.3-6.1,5.4c-4.8,5.6-8.1,12.9-8.4,20.4   C297.6,153,308.3,167,322.3,171.1z"></path></g></svg>