<svg xmlns="http://www.w3.org/2000/svg" xmlns:xlink="http://www.w3.org/1999/xlink" id="Layer_1" x="0px" y="0px" viewBox="0 0 599.7 277" style="enable-background:new 0 0 599.7 277;" xml:space="preserve"><style type="text/css">	.rock-zero{fill:#FF6841;}	.rock-one{fill:#FFC1A7;}	.rock-two{fill:#E6EAEC;}	.rock-three{fill:#FF986D;}	.rock-four{fill:#0A6375;}	.rock-five{fill:#AA532E;}</style><g>	<path class="rock-zero" d="M148,167.9c-4.7-9.4-7.1-20.1-7.2-30.7c0.1-2.1,0.3-4.2,0.6-6.3c1.1-7.6,3.9-14.6,7.3-21.4  c0.1-0.3,0.2-0.6-0.1-0.8c-0.1-0.2-0.3-0.3-0.5-0.5c0.1-0.3,0.1-0.7-0.3-1c-0.5-0.3-1-0.5-1.5-0.8c-0.2-0.2-0.5-0.3-0.8-0.4  c-16.4-9.1-33-17.9-49.5-26.7c-1.1-0.6-2.4,0.7-1.5,1.7c7.9,9.3,15.9,18.6,24.1,27.7c-6.2-2.3-12.4-4.7-18.7-6.7  c-7.4-2.4-14.9-4.4-22.5-6.2C62.5,92.4,47.3,90.1,32,89c-8.7-0.6-17.5-0.9-26.3-0.7c-1.4,0-1.9,2-0.5,2.5  c28.1,9.9,55.5,21.9,81.9,35.6c6.6,3.4,13.2,6.9,19.7,10.4c-13.4-1.3-26.7-2.1-40.1-1.6c-14.3,0.6-28.5,2.2-42.5,5  c-8,1.6-15.9,3.5-23.7,5.8c-0.9,0.3-0.8,1.5,0.1,1.6c28.1,5.2,56.7,8.7,85.2,10.4c6.4,0.4,12.9,0.7,19.3,0.9  c-18.8,7.8-36.5,18.1-52.6,30.7c-1.1,0.9-0.1,2.5,1.2,2.4c24.8-3.1,49.4-8.3,73.3-15.6c6.7-2.1,13.4-4.3,20.1-6.6  C148.1,169.7,148.3,168.6,148,167.9z"></path>	<path class="rock-one" d="M398.3,76.8L398.3,76.8c-2.4-10.8-8.8-20.5-15.3-29.2c-6.8-9.1-14.4-17.4-23.4-24.3  c-17-13-38.1-21.2-59.4-22.9c-11.8-1-23.8-0.1-35.3,2.5c-1.6,0.4-1.7,2.2-0.6,3.1c16.7,14.1,29.3,32.7,36.9,53.2  c1.9,5.1,3.3,10.3,4.5,15.6c0,0.2,0.1,0.5,0.1,0.7c0.1,0.5,0.2,1.1,0.3,1.6c0.4,2,3.5,1.4,3.1-0.6l0,0c22.9-2,46-1.9,68.9,0.4  c3.2,0.3,6.4,0.7,9.6,1.1c3.4,0.4,6.7,1,10.1,1.1C399.1,79.1,399.6,77.2,398.3,76.8z"></path>	<path class="rock-one" d="M402.6,189.3c-3.3,0.4-6.6,1.3-10,1.9c-3.2,0.6-6.3,1.2-9.5,1.8c-22.6,4.1-45.7,6.1-68.7,5.9l0,0  c0.3-2-2.9-2.4-3.1-0.4c-0.1,0.5-0.1,1.1-0.2,1.6c-0.1,0.2-0.1,0.5-0.1,0.7c-0.7,5.4-1.8,10.6-3.2,15.9c-5.9,21-17.1,40.5-32.5,56  c-1,1-0.7,2.8,0.9,3.1c11.7,1.8,23.7,1.6,35.4-0.3c21.2-3.5,41.5-13.2,57.4-27.6c8.4-7.6,15.4-16.5,21.4-26.1  c5.8-9.2,11.3-19.4,12.8-30.3h0.1C404.5,191.1,403.8,189.2,402.6,189.3z"></path>	<path class="rock-two" d="M590.9,142.4c2.8-1.8,5.6-3.7,8.4-5.5c1.3-0.9-0.9-3.5-2.3-2.7c-21.7-15.1-45-28-69.2-38.7  c-0.4-0.2-0.8-0.3-1.2-0.5c-23.9-10.4-48.8-18.5-74.3-24.3c-26.7-6-54-9.3-81.3-9.9c-28.9-0.6-57.9,2-86.3,7.5  c-28.2,5.5-55.8,13.8-82.2,25c-3.2,1.3-6.3,2.7-9.5,4.2l0,0c-0.1,0-0.2,0.1-0.3,0.1c-0.1,0-0.1,0.1-0.1,0.2l0,0  c-13,22.8-14.5,51.4-5.1,75.7c2.7,6.8,6.2,13.3,10.5,19.3c0.3,0.5,0.9,1.1,1.6,1.1c0.3,0.4,0.8,0.7,1.2,0.8  c25.8,8.2,52.4,13.9,79.2,17.3c26.9,3.4,54.2,4.4,81.3,3c27-1.3,54-5,80.4-10.9c26.4-5.9,52.3-14,77.3-24.4  c3.6-1.5,7.3-3.1,10.9-4.7C551.1,165.9,571.5,154.9,590.9,142.4z"></path>	<path class="rock-three" d="M302.6,125.3c-9.3-21.7-38.9-28.6-57-13.4c-6.3,5.3-10.2,12.1-12,19.5c-1.2,4.5-1.6,9.3-0.9,14.3  c2.7,21.4,24.2,35.2,44.9,30.5C299.9,171.1,311.5,146,302.6,125.3z"></path>	<path class="rock-circ" d="M441.3,119.1c-12-28-50.2-36.9-73.6-17.3c-8.1,6.8-13.2,15.7-15.4,25.1c-1.5,5.8-2,12.1-1.2,18.5  c3.4,27.6,31.3,45.5,58,39.4C437.8,178.2,452.8,145.8,441.3,119.1z"></path>	<g class="rock-dots">		<path class="rock-dots-sub" d="M440.6,99.4c0.6-0.6,1.1-1.3,1.4-2.1c0.1-0.4,0.2-0.8,0.2-1.2c0.1-0.9-0.1-1.7-0.5-2.5c-0.3-0.6-0.7-1.1-1.2-1.5   c-0.4-0.5-1-0.8-1.6-1s-1.2-0.3-1.8-0.2c-0.7,0-1.3,0.1-1.9,0.5c-0.4,0.2-0.7,0.5-1.1,0.7c-0.6,0.6-1.1,1.3-1.4,2.1   c-0.1,0.4-0.2,0.8-0.2,1.2c-0.1,0.9,0.1,1.7,0.5,2.5c0.3,0.6,0.7,1.1,1.2,1.5c0.4,0.5,1,0.8,1.6,1s1.2,0.3,1.8,0.2   c0.7,0,1.3-0.1,1.9-0.5C439.9,99.9,440.2,99.7,440.6,99.4z"></path>		<path class="rock-dots-sub" d="M452.2,106.6c-1-2.1-3.9-3.2-6-2s-3.1,3.7-2,6c1,2.1,3.9,3.2,6,2S453.3,108.8,452.2,106.6z"></path>		<path class="rock-dots-sub" d="M458.7,130.6c0.6-0.5,1-1.2,1.3-2c0.1-0.4,0.2-0.8,0.2-1.2c0.1-0.8-0.1-1.6-0.5-2.4c-0.3-0.6-0.6-1.1-1.2-1.4   c-0.4-0.4-0.9-0.7-1.5-0.9c-0.6-0.2-1.2-0.3-1.8-0.2c-0.6,0-1.2,0.1-1.8,0.4c-0.3,0.2-0.7,0.5-1,0.7c-0.6,0.5-1,1.2-1.3,2   c-0.1,0.4-0.2,0.8-0.2,1.2c-0.1,0.8,0.1,1.6,0.5,2.4c0.3,0.6,0.6,1.1,1.2,1.4c0.4,0.4,0.9,0.7,1.5,0.9s1.2,0.3,1.8,0.2   c0.6,0,1.2-0.1,1.8-0.4C458.1,131,458.4,130.8,458.7,130.6z"></path>		<path class="rock-dots-sub" d="M458.6,149.3c0.6-0.5,1-1.1,1.2-1.8c0.1-0.4,0.1-0.7,0.2-1.1c0.1-0.8-0.1-1.5-0.4-2.2c-0.2-0.5-0.6-1-1.1-1.3   c-0.4-0.4-0.9-0.7-1.4-0.9s-1.1-0.3-1.6-0.2c-0.6,0-1.1,0.1-1.7,0.4l-1,0.7c-0.6,0.5-1,1.1-1.2,1.8c-0.1,0.4-0.1,0.7-0.2,1.1   c-0.1,0.8,0.1,1.5,0.4,2.2c0.2,0.5,0.6,1,1.1,1.3c0.4,0.4,0.9,0.7,1.4,0.9s1.1,0.3,1.6,0.2c0.6,0,1.1-0.1,1.7-0.4L458.6,149.3z"></path>		<path class="rock-dots-sub" d="M451.1,165.2c0.6-0.5,1-1.1,1.2-1.9c0.1-0.4,0.1-0.7,0.2-1.1c0.1-0.8-0.1-1.5-0.5-2.3c-0.2-0.6-0.6-1-1.1-1.4   c-0.4-0.4-0.9-0.7-1.4-0.9s-1.1-0.3-1.7-0.2c-0.6,0-1.2,0.1-1.7,0.4c-0.3,0.2-0.7,0.4-1,0.7c-0.6,0.5-1,1.1-1.2,1.9   c-0.1,0.4-0.1,0.7-0.2,1.1c-0.1,0.8,0.1,1.5,0.5,2.3c0.3,0.6,0.6,1,1.1,1.4c0.4,0.4,0.9,0.7,1.4,0.9s1.1,0.3,1.7,0.2   c0.6,0,1.2-0.1,1.7-0.4C450.4,165.7,450.8,165.4,451.1,165.2z"></path>		<path class="rock-dots-sub" d="M420.9,89.7c0.6-0.6,1.1-1.2,1.3-2l0.2-1.2c0.1-0.9-0.1-1.7-0.5-2.4c-0.3-0.6-0.7-1.1-1.2-1.5c-0.4-0.4-0.9-0.7-1.6-0.9   c-0.6-0.2-1.2-0.3-1.8-0.2c-0.6,0-1.2,0.1-1.8,0.4c-0.4,0.2-0.7,0.5-1.1,0.7c-0.6,0.6-1.1,1.2-1.3,2c-0.1,0.4-0.2,0.8-0.2,1.2   c-0.1,0.9,0.1,1.7,0.5,2.4c0.3,0.6,0.7,1.1,1.2,1.5c0.4,0.4,0.9,0.7,1.6,0.9c0.6,0.2,1.2,0.3,1.8,0.2c0.6,0,1.2-0.1,1.8-0.4   C420.2,90.2,420.5,90,420.9,89.7z"></path>		<path class="rock-dots-sub" d="M400.4,84.9c0.6-0.5,1-1.2,1.2-1.9c0.1-0.4,0.1-0.7,0.2-1.1c0.1-0.8-0.1-1.6-0.5-2.3c-0.3-0.6-0.6-1-1.1-1.4   c-0.4-0.4-0.9-0.7-1.5-0.9c-0.6-0.2-1.1-0.3-1.7-0.2c-0.6,0-1.2,0.1-1.7,0.4c-0.3,0.2-0.7,0.4-1,0.7c-0.6,0.5-1,1.2-1.2,1.9   c-0.1,0.4-0.1,0.7-0.2,1.1c-0.1,0.8,0.1,1.6,0.5,2.3c0.3,0.6,0.6,1,1.1,1.4c0.4,0.4,0.9,0.7,1.5,0.9c0.6,0.2,1.1,0.3,1.7,0.2   c0.6,0,1.2-0.1,1.7-0.4C399.8,85.3,400.1,85.1,400.4,84.9z"></path>		<path class="rock-dots-sub" d="M380.6,91.2c0.6-0.5,1-1.1,1.2-1.9l0.2-1.1c0.1-0.8-0.1-1.5-0.4-2.2c-0.2-0.5-0.6-1-1.1-1.3c-0.4-0.4-0.9-0.7-1.4-0.9   c-0.5-0.2-1.1-0.3-1.7-0.2c-0.6,0-1.1,0.1-1.7,0.4c-0.3,0.2-0.6,0.4-1,0.7c-0.6,0.5-1,1.1-1.2,1.9c-0.1,0.4-0.1,0.7-0.2,1.1   c-0.1,0.8,0.1,1.5,0.4,2.2c0.2,0.5,0.6,1,1.1,1.3c0.4,0.4,0.9,0.7,1.4,0.9c0.5,0.2,1.1,0.3,1.7,0.2c0.6,0,1.1-0.1,1.7-0.4   C380,91.7,380.3,91.4,380.6,91.2z"></path>		<path class="rock-dots-sub" d="M363.4,98.8L363.4,98.8c0.4-0.5,0.6-1.1,0.7-1.7c0.2-0.6,0.2-1.2,0-1.8c-0.1-0.4-0.3-0.8-0.4-1.2   c-0.3-0.6-0.7-1.1-1.2-1.4c-0.3-0.3-0.6-0.5-1-0.7c-0.5-0.3-1.1-0.5-1.7-0.5c-0.4,0-0.8,0-1.2,0.1c-0.8,0.2-1.6,0.5-2.2,1.1l0,0   c-0.6,0.6-1,1.2-1.3,2c-0.1,0.4-0.2,0.8-0.2,1.2c-0.1,0.8,0.1,1.6,0.5,2.4c0.3,0.6,0.7,1.1,1.2,1.4c0.4,0.4,0.9,0.7,1.5,0.9   c0.6,0.2,1.2,0.3,1.8,0.2c0.6,0,1.2-0.1,1.8-0.4S363,99.5,363.4,98.8z"></path>		<path class="rock-dots-sub" d="M347.8,112.2C347.8,112.1,347.8,112.1,347.8,112.2c0.4-0.5,0.6-1.1,0.7-1.7c0.2-0.6,0.2-1.2,0-1.8   c-0.1-0.4-0.3-0.8-0.4-1.2c-0.3-0.6-0.7-1.1-1.2-1.4c-0.3-0.3-0.6-0.5-1-0.7c-0.5-0.3-1.1-0.5-1.7-0.5c-0.4,0-0.8,0-1.2,0.1   c-0.8,0.2-1.6,0.5-2.2,1.1l0,0c-0.6,0.6-1.1,1.2-1.3,2c-0.1,0.4-0.2,0.8-0.2,1.2c-0.1,0.8,0.1,1.6,0.5,2.4   c0.3,0.6,0.7,1.1,1.2,1.4c0.4,0.4,0.9,0.7,1.5,0.9c0.6,0.2,1.2,0.3,1.8,0.2c0.6,0,1.2-0.1,1.8-0.4   C346.7,113.4,347.3,112.9,347.8,112.2z"></path>		<path class="rock-dots-sub" d="M340.1,130.5c0.6-0.6,1.1-1.2,1.3-2c0.1-0.4,0.2-0.8,0.2-1.2c0.1-0.9-0.1-1.7-0.5-2.4c-0.3-0.6-0.7-1.1-1.2-1.5   c-0.4-0.4-1-0.8-1.6-0.9c-0.6-0.2-1.2-0.3-1.8-0.2c-0.6,0-1.2,0.1-1.8,0.4c-0.4,0.2-0.7,0.5-1.1,0.7c-0.6,0.6-1.1,1.2-1.3,2   c-0.1,0.4-0.2,0.8-0.2,1.2c-0.1,0.9,0.1,1.7,0.5,2.4c0.3,0.6,0.7,1.1,1.2,1.5c0.4,0.4,1,0.8,1.6,0.9c0.6,0.2,1.2,0.3,1.8,0.2   c0.6,0,1.2-0.1,1.8-0.4C339.4,131,339.7,130.7,340.1,130.5z"></path>		<path class="rock-dots-sub" d="M340.4,150c0.6-0.6,1.1-1.2,1.3-2l0.2-1.2c0.1-0.9-0.1-1.7-0.5-2.4c-0.3-0.6-0.7-1.1-1.2-1.5c-0.4-0.4-1-0.8-1.6-0.9   c-0.6-0.2-1.2-0.3-1.8-0.2c-0.6,0-1.2,0.1-1.8,0.4l-1.1,0.7c-0.6,0.6-1.1,1.2-1.3,2c-0.1,0.4-0.2,0.8-0.2,1.2   c-0.1,0.9,0.1,1.7,0.5,2.4c0.3,0.6,0.7,1.1,1.2,1.5c0.4,0.4,1,0.8,1.6,0.9c0.6,0.2,1.2,0.3,1.8,0.2c0.6,0,1.2-0.1,1.8-0.4   C339.7,150.4,340,150.2,340.4,150z"></path>		<path class="rock-dots-sub" d="M347.4,167c0.6-0.6,1.1-1.2,1.3-2c0.1-0.4,0.2-0.8,0.2-1.2c0.1-0.9-0.1-1.7-0.5-2.4c-0.3-0.6-0.7-1.1-1.2-1.5   c-0.4-0.4-1-0.8-1.6-0.9c-0.6-0.2-1.2-0.3-1.8-0.2c-0.6,0-1.3,0.1-1.8,0.4c-0.4,0.2-0.7,0.5-1.1,0.7c-0.6,0.6-1.1,1.2-1.3,2   c-0.1,0.4-0.2,0.8-0.2,1.2c-0.1,0.9,0.1,1.7,0.5,2.4c0.3,0.6,0.7,1.1,1.2,1.5c0.4,0.4,1,0.8,1.6,0.9c0.6,0.2,1.2,0.3,1.8,0.2   c0.6,0,1.3-0.1,1.8-0.4C346.7,167.5,347.1,167.2,347.4,167z"></path>		<path class="rock-dots-sub" d="M360.3,181.4c0.6-0.6,1.1-1.3,1.4-2.1c0.1-0.4,0.2-0.8,0.2-1.2c0.1-0.9-0.1-1.7-0.5-2.5c-0.3-0.6-0.7-1.1-1.2-1.5   c-0.4-0.4-1-0.8-1.6-0.9c-0.6-0.2-1.2-0.3-1.8-0.2c-0.6,0-1.3,0.1-1.9,0.5c-0.4,0.2-0.7,0.5-1.1,0.7c-0.6,0.6-1.1,1.3-1.4,2.1   c-0.1,0.4-0.2,0.8-0.2,1.2c-0.1,0.9,0.1,1.7,0.5,2.5c0.3,0.6,0.7,1.1,1.2,1.5c0.4,0.4,1,0.8,1.6,0.9c0.6,0.2,1.2,0.3,1.8,0.2   c0.6,0,1.3-0.1,1.9-0.5C359.5,181.8,359.9,181.6,360.3,181.4z"></path>		<path class="rock-dots-sub" d="M377,190c0.6-0.6,1.1-1.2,1.3-2c0.1-0.4,0.2-0.8,0.2-1.2c0.1-0.9-0.1-1.7-0.5-2.5c-0.3-0.6-0.7-1.1-1.2-1.5   c-0.4-0.4-1-0.8-1.6-0.9c-0.6-0.2-1.2-0.3-1.8-0.2c-0.6,0-1.3,0.1-1.8,0.5c-0.4,0.2-0.7,0.5-1.1,0.7c-0.6,0.6-1.1,1.2-1.3,2   c-0.1,0.4-0.2,0.8-0.2,1.2c-0.1,0.9,0.1,1.7,0.5,2.5c0.3,0.6,0.7,1.1,1.2,1.5c0.4,0.4,1,0.8,1.6,0.9c0.6,0.2,1.2,0.3,1.8,0.2   c0.6,0,1.3-0.1,1.8-0.5C376.3,190.5,376.7,190.3,377,190z"></path>		<path class="rock-dots-sub" d="M397.9,196.6c0.6-0.6,1.1-1.2,1.3-2c0.1-0.4,0.2-0.8,0.2-1.2c0.1-0.9-0.1-1.7-0.5-2.4c-0.3-0.6-0.7-1.1-1.2-1.5   c-0.4-0.4-1-0.8-1.6-0.9c-0.6-0.2-1.2-0.3-1.8-0.2c-0.6,0-1.2,0.1-1.8,0.4c-0.4,0.2-0.7,0.5-1.1,0.7c-0.6,0.6-1.1,1.2-1.3,2   c-0.1,0.4-0.2,0.8-0.2,1.2c-0.1,0.9,0.1,1.7,0.5,2.4c0.3,0.6,0.7,1.1,1.2,1.5c0.4,0.4,1,0.8,1.6,0.9c0.6,0.2,1.2,0.3,1.8,0.2   c0.6,0,1.2-0.1,1.8-0.4C397.2,197.1,397.6,196.9,397.9,196.6z"></path>		<path class="rock-dots-sub" d="M416.2,194.2c0.6-0.6,1.1-1.3,1.4-2.1c0.1-0.4,0.2-0.8,0.2-1.2c0.1-0.9-0.1-1.7-0.5-2.5c-0.3-0.6-0.7-1.1-1.2-1.5   c-0.4-0.5-1-0.8-1.6-0.9c-0.6-0.2-1.2-0.3-1.8-0.2c-0.7,0-1.3,0.1-1.9,0.5c-0.4,0.2-0.7,0.5-1.1,0.7c-0.6,0.6-1.1,1.3-1.4,2.1   c-0.1,0.4-0.2,0.8-0.2,1.2c-0.1,0.9,0.1,1.7,0.5,2.5c0.3,0.6,0.7,1.1,1.2,1.5c0.4,0.5,1,0.8,1.6,0.9c0.6,0.2,1.2,0.3,1.8,0.2   c0.7,0,1.3-0.1,1.9-0.5L416.2,194.2z"></path>		<path class="rock-dots-sub" d="M435.2,185.8c0.6-0.5,1-1.2,1.3-2c0.1-0.4,0.2-0.8,0.2-1.2c0.1-0.8-0.1-1.6-0.5-2.4c-0.3-0.6-0.6-1.1-1.1-1.4   c-0.4-0.4-0.9-0.7-1.5-0.9s-1.2-0.3-1.8-0.2c-0.6,0-1.2,0.1-1.8,0.4c-0.3,0.2-0.7,0.5-1,0.7c-0.6,0.5-1,1.2-1.3,2   c-0.1,0.4-0.2,0.8-0.2,1.2c-0.1,0.8,0.1,1.6,0.5,2.4c0.3,0.6,0.6,1.1,1.1,1.4c0.4,0.4,0.9,0.7,1.5,0.9s1.2,0.3,1.8,0.2   c0.6,0,1.2-0.1,1.8-0.4C434.5,186.3,434.9,186.1,435.2,185.8z"></path>	</g>	<path class="rock-four" d="M530,175.3c-4.1-4.3-7.6-9.2-10.3-14.7c-10.7-21.6-7.2-46.7,7-65.6c0.4,0.2,0.8,0.3,1.2,0.5  c24.2,10.6,47.5,23.6,69.2,38.7c1.4-0.9,3.6,1.8,2.3,2.7c-2.8,1.9-5.6,3.7-8.4,5.5C571.5,154.9,551.1,165.9,530,175.3z"></path>	<path class="rock-one" d="M202.8,197.9c0.5-0.2,1-0.5,1.5-0.7c0.2-0.1,0.3-0.2,0.4-0.4c0.4-0.6-0.1-1.6-0.5-2  c-18.1-21.7-24.1-51.6-16.1-78.4c2.1-6.9,5-13.6,8.8-19.7c0.5-0.8-0.5-2.2-1.5-2.7c-8.7-9.2-34.7-18.3-35.3-17.4  c-9.7,14.1-16.2,30.5-18.9,47.6c-2.9,18.4-1.1,37.3,4.7,55.1c3.4,10.4,8.3,20.3,14.4,29.4c0.2,0.3,0.5,0.6,0.8,0.9  c0.5,0.8,1.3,1.6,1.9,1.6C177.3,211.1,191.3,206.4,202.8,197.9z"></path>	<path class="rock-five" d="M309.3,146.5c1.8-10.3-0.9-20.9-6.7-29.5c-5.4-8-25.4-26.8-51.2-13.6c-16.6,8.4-27.1,29.1-22.5,47.1  c4.8,18.5,23.3,31.7,42.3,30.6C289.9,180,306.1,164.7,309.3,146.5z M277.4,171.1c-14.3,4.2-30.7-3.3-37.8-16.3  c-7.7-14-3.4-31.9,9.1-41.6c11.3-8.8,26.5-7.8,38.1-0.7c2.2,1.5,4.3,3.3,6.1,5.4c4.8,5.6,8.1,12.9,8.4,20.4  C302.1,153,291.4,167,277.4,171.1z"></path></g></svg>